<mxfile host="app.diagrams.net" modified="2023-10-13T22:54:36.909Z" agent="Mozilla/5.0 (Windows NT 10.0; Win64; x64) AppleWebKit/537.36 (KHTML, like Gecko) Chrome/117.0.0.0 Safari/537.36" etag="EGyvRFjbjBZ0ZL8di7VS" version="22.0.4" type="github">
  <diagram name="Página-1" id="-ygdy8630yrJe1KB-0lt">
    <mxGraphModel dx="1687" dy="2061" grid="1" gridSize="10" guides="1" tooltips="1" connect="1" arrows="1" fold="1" page="1" pageScale="1" pageWidth="827" pageHeight="1169" math="0" shadow="0">
      <root>
        <mxCell id="0" />
        <mxCell id="1" parent="0" />
        <mxCell id="7aKeYZJTnc0OrMBW9mIs-49" style="edgeStyle=orthogonalEdgeStyle;rounded=0;orthogonalLoop=1;jettySize=auto;html=1;exitX=0;exitY=0;exitDx=0;exitDy=0;" edge="1" parent="1" source="7aKeYZJTnc0OrMBW9mIs-1">
          <mxGeometry relative="1" as="geometry">
            <mxPoint x="160" y="310" as="targetPoint" />
          </mxGeometry>
        </mxCell>
        <mxCell id="7aKeYZJTnc0OrMBW9mIs-51" style="edgeStyle=orthogonalEdgeStyle;rounded=0;orthogonalLoop=1;jettySize=auto;html=1;exitX=0;exitY=0.5;exitDx=0;exitDy=0;" edge="1" parent="1" source="7aKeYZJTnc0OrMBW9mIs-1">
          <mxGeometry relative="1" as="geometry">
            <mxPoint x="130" y="360" as="targetPoint" />
          </mxGeometry>
        </mxCell>
        <mxCell id="7aKeYZJTnc0OrMBW9mIs-52" style="edgeStyle=orthogonalEdgeStyle;rounded=0;orthogonalLoop=1;jettySize=auto;html=1;exitX=0.25;exitY=0;exitDx=0;exitDy=0;" edge="1" parent="1" source="7aKeYZJTnc0OrMBW9mIs-1">
          <mxGeometry relative="1" as="geometry">
            <mxPoint x="190" y="260" as="targetPoint" />
          </mxGeometry>
        </mxCell>
        <mxCell id="7aKeYZJTnc0OrMBW9mIs-53" style="edgeStyle=orthogonalEdgeStyle;rounded=0;orthogonalLoop=1;jettySize=auto;html=1;exitX=0.25;exitY=1;exitDx=0;exitDy=0;" edge="1" parent="1" source="7aKeYZJTnc0OrMBW9mIs-1">
          <mxGeometry relative="1" as="geometry">
            <mxPoint x="200" y="470" as="targetPoint" />
          </mxGeometry>
        </mxCell>
        <mxCell id="7aKeYZJTnc0OrMBW9mIs-55" style="edgeStyle=orthogonalEdgeStyle;rounded=0;orthogonalLoop=1;jettySize=auto;html=1;exitX=0;exitY=1;exitDx=0;exitDy=0;" edge="1" parent="1" source="7aKeYZJTnc0OrMBW9mIs-1">
          <mxGeometry relative="1" as="geometry">
            <mxPoint x="130" y="440" as="targetPoint" />
          </mxGeometry>
        </mxCell>
        <mxCell id="7aKeYZJTnc0OrMBW9mIs-74" style="edgeStyle=orthogonalEdgeStyle;rounded=0;orthogonalLoop=1;jettySize=auto;html=1;exitX=0.5;exitY=1;exitDx=0;exitDy=0;endArrow=none;endFill=0;" edge="1" parent="1" source="7aKeYZJTnc0OrMBW9mIs-1">
          <mxGeometry relative="1" as="geometry">
            <mxPoint x="100" y="980" as="targetPoint" />
          </mxGeometry>
        </mxCell>
        <mxCell id="7aKeYZJTnc0OrMBW9mIs-97" style="edgeStyle=orthogonalEdgeStyle;rounded=0;orthogonalLoop=1;jettySize=auto;html=1;exitX=0.5;exitY=0;exitDx=0;exitDy=0;endArrow=none;endFill=0;" edge="1" parent="1" source="7aKeYZJTnc0OrMBW9mIs-1">
          <mxGeometry relative="1" as="geometry">
            <mxPoint x="50" y="-130" as="targetPoint" />
          </mxGeometry>
        </mxCell>
        <mxCell id="7aKeYZJTnc0OrMBW9mIs-167" style="edgeStyle=orthogonalEdgeStyle;rounded=0;orthogonalLoop=1;jettySize=auto;html=1;exitX=0.75;exitY=1;exitDx=0;exitDy=0;endArrow=none;endFill=0;" edge="1" parent="1">
          <mxGeometry relative="1" as="geometry">
            <mxPoint x="280" y="505" as="sourcePoint" />
            <mxPoint x="380" y="680" as="targetPoint" />
          </mxGeometry>
        </mxCell>
        <mxCell id="7aKeYZJTnc0OrMBW9mIs-169" style="edgeStyle=orthogonalEdgeStyle;rounded=0;orthogonalLoop=1;jettySize=auto;html=1;exitX=0.75;exitY=1;exitDx=0;exitDy=0;endArrow=none;endFill=0;" edge="1" parent="1" source="7aKeYZJTnc0OrMBW9mIs-1">
          <mxGeometry relative="1" as="geometry">
            <mxPoint x="280" y="510" as="targetPoint" />
          </mxGeometry>
        </mxCell>
        <mxCell id="7aKeYZJTnc0OrMBW9mIs-1" value="Arbitro" style="rounded=0;whiteSpace=wrap;html=1;fillColor=#d5e8d4;strokeColor=#82b366;" vertex="1" parent="1">
          <mxGeometry x="190" y="310" width="120" height="60" as="geometry" />
        </mxCell>
        <mxCell id="7aKeYZJTnc0OrMBW9mIs-23" style="edgeStyle=orthogonalEdgeStyle;rounded=0;orthogonalLoop=1;jettySize=auto;html=1;exitX=1;exitY=1;exitDx=0;exitDy=0;" edge="1" parent="1" source="7aKeYZJTnc0OrMBW9mIs-2">
          <mxGeometry relative="1" as="geometry">
            <mxPoint x="630" y="415" as="targetPoint" />
          </mxGeometry>
        </mxCell>
        <mxCell id="7aKeYZJTnc0OrMBW9mIs-24" style="edgeStyle=orthogonalEdgeStyle;rounded=0;orthogonalLoop=1;jettySize=auto;html=1;exitX=1;exitY=0;exitDx=0;exitDy=0;" edge="1" parent="1" source="7aKeYZJTnc0OrMBW9mIs-2">
          <mxGeometry relative="1" as="geometry">
            <mxPoint x="630" y="275" as="targetPoint" />
          </mxGeometry>
        </mxCell>
        <mxCell id="7aKeYZJTnc0OrMBW9mIs-25" style="edgeStyle=orthogonalEdgeStyle;rounded=0;orthogonalLoop=1;jettySize=auto;html=1;exitX=0.75;exitY=1;exitDx=0;exitDy=0;" edge="1" parent="1" source="7aKeYZJTnc0OrMBW9mIs-2">
          <mxGeometry relative="1" as="geometry">
            <mxPoint x="590" y="465" as="targetPoint" />
          </mxGeometry>
        </mxCell>
        <mxCell id="7aKeYZJTnc0OrMBW9mIs-26" style="edgeStyle=orthogonalEdgeStyle;rounded=0;orthogonalLoop=1;jettySize=auto;html=1;exitX=0.75;exitY=0;exitDx=0;exitDy=0;" edge="1" parent="1" source="7aKeYZJTnc0OrMBW9mIs-2">
          <mxGeometry relative="1" as="geometry">
            <mxPoint x="600" y="225" as="targetPoint" />
          </mxGeometry>
        </mxCell>
        <mxCell id="7aKeYZJTnc0OrMBW9mIs-27" style="edgeStyle=orthogonalEdgeStyle;rounded=0;orthogonalLoop=1;jettySize=auto;html=1;exitX=1;exitY=0.5;exitDx=0;exitDy=0;" edge="1" parent="1" source="7aKeYZJTnc0OrMBW9mIs-2">
          <mxGeometry relative="1" as="geometry">
            <mxPoint x="640" y="345" as="targetPoint" />
          </mxGeometry>
        </mxCell>
        <mxCell id="7aKeYZJTnc0OrMBW9mIs-59" style="edgeStyle=orthogonalEdgeStyle;rounded=0;orthogonalLoop=1;jettySize=auto;html=1;endArrow=none;endFill=0;" edge="1" parent="1">
          <mxGeometry relative="1" as="geometry">
            <mxPoint x="380" y="695" as="targetPoint" />
            <mxPoint x="510" y="506" as="sourcePoint" />
          </mxGeometry>
        </mxCell>
        <mxCell id="7aKeYZJTnc0OrMBW9mIs-75" style="edgeStyle=orthogonalEdgeStyle;rounded=0;orthogonalLoop=1;jettySize=auto;html=1;exitX=0.5;exitY=1;exitDx=0;exitDy=0;endArrow=none;endFill=0;" edge="1" parent="1" source="7aKeYZJTnc0OrMBW9mIs-2">
          <mxGeometry relative="1" as="geometry">
            <mxPoint x="660" y="980" as="targetPoint" />
          </mxGeometry>
        </mxCell>
        <mxCell id="7aKeYZJTnc0OrMBW9mIs-95" style="edgeStyle=orthogonalEdgeStyle;rounded=0;orthogonalLoop=1;jettySize=auto;html=1;exitX=0.5;exitY=0;exitDx=0;exitDy=0;endArrow=none;endFill=0;" edge="1" parent="1" source="7aKeYZJTnc0OrMBW9mIs-2">
          <mxGeometry relative="1" as="geometry">
            <mxPoint x="730" y="-130" as="targetPoint" />
          </mxGeometry>
        </mxCell>
        <mxCell id="7aKeYZJTnc0OrMBW9mIs-166" style="edgeStyle=orthogonalEdgeStyle;rounded=0;orthogonalLoop=1;jettySize=auto;html=1;exitX=0.25;exitY=1;exitDx=0;exitDy=0;endArrow=none;endFill=0;" edge="1" parent="1">
          <mxGeometry relative="1" as="geometry">
            <mxPoint x="510" y="510" as="targetPoint" />
            <mxPoint x="510.0299999999998" y="375" as="sourcePoint" />
            <Array as="points">
              <mxPoint x="510.03000000000003" y="420" />
              <mxPoint x="510.03000000000003" y="420" />
            </Array>
          </mxGeometry>
        </mxCell>
        <mxCell id="7aKeYZJTnc0OrMBW9mIs-2" value="Jugador" style="whiteSpace=wrap;html=1;fillColor=#d5e8d4;strokeColor=#82b366;" vertex="1" parent="1">
          <mxGeometry x="470" y="315" width="120" height="60" as="geometry" />
        </mxCell>
        <mxCell id="7aKeYZJTnc0OrMBW9mIs-12" style="edgeStyle=orthogonalEdgeStyle;rounded=0;orthogonalLoop=1;jettySize=auto;html=1;exitX=0.25;exitY=1;exitDx=0;exitDy=0;entryX=0.75;entryY=0;entryDx=0;entryDy=0;endArrow=none;endFill=0;" edge="1" parent="1" source="7aKeYZJTnc0OrMBW9mIs-10" target="7aKeYZJTnc0OrMBW9mIs-1">
          <mxGeometry relative="1" as="geometry" />
        </mxCell>
        <mxCell id="7aKeYZJTnc0OrMBW9mIs-10" value="PARTICIPANTES" style="whiteSpace=wrap;html=1;fillColor=#ffe6cc;strokeColor=#d79b00;" vertex="1" parent="1">
          <mxGeometry x="330" y="30" width="120" height="60" as="geometry" />
        </mxCell>
        <mxCell id="7aKeYZJTnc0OrMBW9mIs-11" style="edgeStyle=orthogonalEdgeStyle;rounded=0;orthogonalLoop=1;jettySize=auto;html=1;exitX=0.75;exitY=1;exitDx=0;exitDy=0;endArrow=none;endFill=0;entryX=0.348;entryY=0.042;entryDx=0;entryDy=0;entryPerimeter=0;" edge="1" parent="1" source="7aKeYZJTnc0OrMBW9mIs-10" target="7aKeYZJTnc0OrMBW9mIs-2">
          <mxGeometry relative="1" as="geometry">
            <mxPoint x="512" y="310" as="targetPoint" />
          </mxGeometry>
        </mxCell>
        <mxCell id="7aKeYZJTnc0OrMBW9mIs-13" value="" style="shape=requiredInterface;html=1;verticalLabelPosition=bottom;sketch=0;rotation=90;" vertex="1" parent="1">
          <mxGeometry x="345" y="30" width="90" height="220" as="geometry" />
        </mxCell>
        <mxCell id="7aKeYZJTnc0OrMBW9mIs-18" value="&lt;u&gt;nº asociado&lt;/u&gt;" style="ellipse;whiteSpace=wrap;html=1;fillColor=#fff2cc;strokeColor=#d6b656;" vertex="1" parent="1">
          <mxGeometry x="620" y="320" width="80" height="50" as="geometry" />
        </mxCell>
        <mxCell id="7aKeYZJTnc0OrMBW9mIs-20" value="nombre" style="ellipse;whiteSpace=wrap;html=1;fillColor=#dae8fc;strokeColor=#6c8ebf;" vertex="1" parent="1">
          <mxGeometry x="550" y="445" width="90" height="60" as="geometry" />
        </mxCell>
        <mxCell id="7aKeYZJTnc0OrMBW9mIs-21" value="teléfono contacto" style="ellipse;whiteSpace=wrap;html=1;fillColor=#dae8fc;strokeColor=#6c8ebf;" vertex="1" parent="1">
          <mxGeometry x="610" y="235" width="90" height="60" as="geometry" />
        </mxCell>
        <mxCell id="7aKeYZJTnc0OrMBW9mIs-22" value="dirección" style="ellipse;whiteSpace=wrap;html=1;fillColor=#dae8fc;strokeColor=#6c8ebf;" vertex="1" parent="1">
          <mxGeometry x="615" y="385" width="90" height="60" as="geometry" />
        </mxCell>
        <mxCell id="7aKeYZJTnc0OrMBW9mIs-43" value="&lt;u&gt;nº asociado&lt;/u&gt;" style="ellipse;whiteSpace=wrap;html=1;fillColor=#fff2cc;strokeColor=#d6b656;" vertex="1" parent="1">
          <mxGeometry x="100" y="280" width="80" height="50" as="geometry" />
        </mxCell>
        <mxCell id="7aKeYZJTnc0OrMBW9mIs-45" value="nombre" style="ellipse;whiteSpace=wrap;html=1;fillColor=#dae8fc;strokeColor=#6c8ebf;" vertex="1" parent="1">
          <mxGeometry x="150" y="460" width="90" height="60" as="geometry" />
        </mxCell>
        <mxCell id="7aKeYZJTnc0OrMBW9mIs-46" value="teléfono contacto" style="ellipse;whiteSpace=wrap;html=1;fillColor=#dae8fc;strokeColor=#6c8ebf;" vertex="1" parent="1">
          <mxGeometry x="140" y="220" width="90" height="60" as="geometry" />
        </mxCell>
        <mxCell id="7aKeYZJTnc0OrMBW9mIs-47" value="dirección" style="ellipse;whiteSpace=wrap;html=1;fillColor=#dae8fc;strokeColor=#6c8ebf;" vertex="1" parent="1">
          <mxGeometry x="50" y="330" width="90" height="60" as="geometry" />
        </mxCell>
        <mxCell id="7aKeYZJTnc0OrMBW9mIs-62" style="edgeStyle=orthogonalEdgeStyle;rounded=0;orthogonalLoop=1;jettySize=auto;html=1;exitX=0.5;exitY=1;exitDx=0;exitDy=0;endArrow=none;endFill=0;" edge="1" parent="1" source="7aKeYZJTnc0OrMBW9mIs-61">
          <mxGeometry relative="1" as="geometry">
            <mxPoint x="380" y="740" as="targetPoint" />
          </mxGeometry>
        </mxCell>
        <mxCell id="7aKeYZJTnc0OrMBW9mIs-61" value="enviados" style="rhombus;whiteSpace=wrap;html=1;fillColor=#a20025;fontColor=#ffffff;strokeColor=#6F0000;" vertex="1" parent="1">
          <mxGeometry x="340" y="590" width="80" height="80" as="geometry" />
        </mxCell>
        <mxCell id="7aKeYZJTnc0OrMBW9mIs-64" style="edgeStyle=orthogonalEdgeStyle;rounded=0;orthogonalLoop=1;jettySize=auto;html=1;exitX=0;exitY=1;exitDx=0;exitDy=0;" edge="1" parent="1" source="7aKeYZJTnc0OrMBW9mIs-63">
          <mxGeometry relative="1" as="geometry">
            <mxPoint x="290" y="810" as="targetPoint" />
          </mxGeometry>
        </mxCell>
        <mxCell id="7aKeYZJTnc0OrMBW9mIs-67" style="edgeStyle=orthogonalEdgeStyle;rounded=0;orthogonalLoop=1;jettySize=auto;html=1;exitX=1;exitY=1;exitDx=0;exitDy=0;" edge="1" parent="1" source="7aKeYZJTnc0OrMBW9mIs-63">
          <mxGeometry relative="1" as="geometry">
            <mxPoint x="470" y="810" as="targetPoint" />
          </mxGeometry>
        </mxCell>
        <mxCell id="7aKeYZJTnc0OrMBW9mIs-180" style="edgeStyle=orthogonalEdgeStyle;rounded=0;orthogonalLoop=1;jettySize=auto;html=1;exitX=0;exitY=0;exitDx=0;exitDy=0;entryX=1;entryY=0.5;entryDx=0;entryDy=0;endArrow=none;endFill=0;" edge="1" parent="1" source="7aKeYZJTnc0OrMBW9mIs-63" target="7aKeYZJTnc0OrMBW9mIs-73">
          <mxGeometry relative="1" as="geometry" />
        </mxCell>
        <mxCell id="7aKeYZJTnc0OrMBW9mIs-63" value="Países" style="rounded=0;whiteSpace=wrap;html=1;fillColor=#d5e8d4;strokeColor=#82b366;" vertex="1" parent="1">
          <mxGeometry x="320" y="730" width="120" height="60" as="geometry" />
        </mxCell>
        <mxCell id="7aKeYZJTnc0OrMBW9mIs-68" value="nombre" style="ellipse;whiteSpace=wrap;html=1;fillColor=#dae8fc;strokeColor=#6c8ebf;" vertex="1" parent="1">
          <mxGeometry x="250" y="800" width="80" height="50" as="geometry" />
        </mxCell>
        <mxCell id="7aKeYZJTnc0OrMBW9mIs-73" value="número" style="ellipse;whiteSpace=wrap;html=1;fillColor=#dae8fc;strokeColor=#6c8ebf;" vertex="1" parent="1">
          <mxGeometry x="220" y="710" width="80" height="50" as="geometry" />
        </mxCell>
        <mxCell id="7aKeYZJTnc0OrMBW9mIs-76" value="" style="endArrow=none;html=1;rounded=0;entryX=0;entryY=0.5;entryDx=0;entryDy=0;" edge="1" parent="1" target="7aKeYZJTnc0OrMBW9mIs-83">
          <mxGeometry width="50" height="50" relative="1" as="geometry">
            <mxPoint x="100" y="980" as="sourcePoint" />
            <mxPoint x="280" y="980" as="targetPoint" />
          </mxGeometry>
        </mxCell>
        <mxCell id="7aKeYZJTnc0OrMBW9mIs-77" value="" style="endArrow=none;html=1;rounded=0;exitX=1;exitY=0.5;exitDx=0;exitDy=0;" edge="1" parent="1" source="7aKeYZJTnc0OrMBW9mIs-83">
          <mxGeometry width="50" height="50" relative="1" as="geometry">
            <mxPoint x="440" y="980" as="sourcePoint" />
            <mxPoint x="660" y="980" as="targetPoint" />
          </mxGeometry>
        </mxCell>
        <mxCell id="7aKeYZJTnc0OrMBW9mIs-79" value="arbitra" style="rhombus;whiteSpace=wrap;html=1;fillColor=#a20025;fontColor=#ffffff;strokeColor=#6F0000;" vertex="1" parent="1">
          <mxGeometry x="120" y="660" width="80" height="80" as="geometry" />
        </mxCell>
        <mxCell id="7aKeYZJTnc0OrMBW9mIs-81" value="juega" style="rhombus;whiteSpace=wrap;html=1;fillColor=#a20025;fontColor=#ffffff;strokeColor=#6F0000;" vertex="1" parent="1">
          <mxGeometry x="570" y="660" width="80" height="80" as="geometry" />
        </mxCell>
        <mxCell id="7aKeYZJTnc0OrMBW9mIs-84" style="edgeStyle=orthogonalEdgeStyle;rounded=0;orthogonalLoop=1;jettySize=auto;html=1;exitX=0;exitY=1;exitDx=0;exitDy=0;" edge="1" parent="1" source="7aKeYZJTnc0OrMBW9mIs-83">
          <mxGeometry relative="1" as="geometry">
            <mxPoint x="270" y="1050" as="targetPoint" />
          </mxGeometry>
        </mxCell>
        <mxCell id="7aKeYZJTnc0OrMBW9mIs-85" style="edgeStyle=orthogonalEdgeStyle;rounded=0;orthogonalLoop=1;jettySize=auto;html=1;exitX=1;exitY=1;exitDx=0;exitDy=0;" edge="1" parent="1" source="7aKeYZJTnc0OrMBW9mIs-83">
          <mxGeometry relative="1" as="geometry">
            <mxPoint x="470" y="1050" as="targetPoint" />
          </mxGeometry>
        </mxCell>
        <mxCell id="7aKeYZJTnc0OrMBW9mIs-132" style="edgeStyle=orthogonalEdgeStyle;rounded=0;orthogonalLoop=1;jettySize=auto;html=1;exitX=0.5;exitY=0;exitDx=0;exitDy=0;entryX=0.5;entryY=1;entryDx=0;entryDy=0;endArrow=none;endFill=0;" edge="1" parent="1" source="7aKeYZJTnc0OrMBW9mIs-83" target="7aKeYZJTnc0OrMBW9mIs-89">
          <mxGeometry relative="1" as="geometry" />
        </mxCell>
        <mxCell id="7aKeYZJTnc0OrMBW9mIs-133" style="edgeStyle=orthogonalEdgeStyle;rounded=0;orthogonalLoop=1;jettySize=auto;html=1;exitX=0.5;exitY=1;exitDx=0;exitDy=0;" edge="1" parent="1" source="7aKeYZJTnc0OrMBW9mIs-83">
          <mxGeometry relative="1" as="geometry">
            <mxPoint x="370" y="1290" as="targetPoint" />
          </mxGeometry>
        </mxCell>
        <mxCell id="7aKeYZJTnc0OrMBW9mIs-146" style="edgeStyle=orthogonalEdgeStyle;rounded=0;orthogonalLoop=1;jettySize=auto;html=1;exitX=1;exitY=0.75;exitDx=0;exitDy=0;" edge="1" parent="1" source="7aKeYZJTnc0OrMBW9mIs-83">
          <mxGeometry relative="1" as="geometry">
            <mxPoint x="530" y="1010" as="targetPoint" />
          </mxGeometry>
        </mxCell>
        <mxCell id="7aKeYZJTnc0OrMBW9mIs-83" value="Partida" style="whiteSpace=wrap;html=1;fillColor=#d5e8d4;strokeColor=#82b366;" vertex="1" parent="1">
          <mxGeometry x="310" y="950" width="120" height="60" as="geometry" />
        </mxCell>
        <mxCell id="7aKeYZJTnc0OrMBW9mIs-88" value="&lt;u&gt;Cod_P&lt;/u&gt;" style="ellipse;whiteSpace=wrap;html=1;fillColor=#fff2cc;strokeColor=#d6b656;" vertex="1" parent="1">
          <mxGeometry x="225" y="1040" width="70" height="50" as="geometry" />
        </mxCell>
        <mxCell id="7aKeYZJTnc0OrMBW9mIs-89" value="que juega cada jugador" style="ellipse;whiteSpace=wrap;html=1;fillColor=#dae8fc;strokeColor=#6c8ebf;" vertex="1" parent="1">
          <mxGeometry x="335" y="890" width="70" height="50" as="geometry" />
        </mxCell>
        <mxCell id="7aKeYZJTnc0OrMBW9mIs-90" value="color" style="ellipse;whiteSpace=wrap;html=1;fillColor=#dae8fc;strokeColor=#6c8ebf;" vertex="1" parent="1">
          <mxGeometry x="450" y="1040" width="60" height="50" as="geometry" />
        </mxCell>
        <mxCell id="7aKeYZJTnc0OrMBW9mIs-99" value="aloja en" style="rhombus;whiteSpace=wrap;html=1;fillColor=#a20025;fontColor=#ffffff;strokeColor=#6F0000;" vertex="1" parent="1">
          <mxGeometry x="10" y="-20" width="80" height="80" as="geometry" />
        </mxCell>
        <mxCell id="7aKeYZJTnc0OrMBW9mIs-100" value="aloja en" style="rhombus;whiteSpace=wrap;html=1;fillColor=#a20025;fontColor=#ffffff;strokeColor=#6F0000;" vertex="1" parent="1">
          <mxGeometry x="690" y="-7" width="80" height="80" as="geometry" />
        </mxCell>
        <mxCell id="7aKeYZJTnc0OrMBW9mIs-101" value="" style="endArrow=none;html=1;rounded=0;" edge="1" parent="1">
          <mxGeometry width="50" height="50" relative="1" as="geometry">
            <mxPoint x="50" y="-130" as="sourcePoint" />
            <mxPoint x="330" y="-130" as="targetPoint" />
          </mxGeometry>
        </mxCell>
        <mxCell id="7aKeYZJTnc0OrMBW9mIs-102" value="" style="endArrow=none;html=1;rounded=0;" edge="1" parent="1">
          <mxGeometry width="50" height="50" relative="1" as="geometry">
            <mxPoint x="450" y="-130" as="sourcePoint" />
            <mxPoint x="730" y="-130" as="targetPoint" />
            <Array as="points">
              <mxPoint x="525" y="-130" />
            </Array>
          </mxGeometry>
        </mxCell>
        <mxCell id="7aKeYZJTnc0OrMBW9mIs-107" style="edgeStyle=orthogonalEdgeStyle;rounded=0;orthogonalLoop=1;jettySize=auto;html=1;exitX=0.25;exitY=0;exitDx=0;exitDy=0;" edge="1" parent="1" source="7aKeYZJTnc0OrMBW9mIs-103">
          <mxGeometry relative="1" as="geometry">
            <mxPoint x="320" y="-320" as="targetPoint" />
          </mxGeometry>
        </mxCell>
        <mxCell id="7aKeYZJTnc0OrMBW9mIs-108" style="edgeStyle=orthogonalEdgeStyle;rounded=0;orthogonalLoop=1;jettySize=auto;html=1;exitX=0.5;exitY=0;exitDx=0;exitDy=0;" edge="1" parent="1" source="7aKeYZJTnc0OrMBW9mIs-103">
          <mxGeometry relative="1" as="geometry">
            <mxPoint x="390" y="-270" as="targetPoint" />
          </mxGeometry>
        </mxCell>
        <mxCell id="7aKeYZJTnc0OrMBW9mIs-111" style="edgeStyle=orthogonalEdgeStyle;rounded=0;orthogonalLoop=1;jettySize=auto;html=1;exitX=0.75;exitY=0;exitDx=0;exitDy=0;" edge="1" parent="1" source="7aKeYZJTnc0OrMBW9mIs-103">
          <mxGeometry relative="1" as="geometry">
            <mxPoint x="460" y="-320" as="targetPoint" />
          </mxGeometry>
        </mxCell>
        <mxCell id="7aKeYZJTnc0OrMBW9mIs-114" style="edgeStyle=orthogonalEdgeStyle;rounded=0;orthogonalLoop=1;jettySize=auto;html=1;exitX=1;exitY=0;exitDx=0;exitDy=0;" edge="1" parent="1" source="7aKeYZJTnc0OrMBW9mIs-103">
          <mxGeometry relative="1" as="geometry">
            <mxPoint x="510" y="-250" as="targetPoint" />
          </mxGeometry>
        </mxCell>
        <mxCell id="7aKeYZJTnc0OrMBW9mIs-140" style="edgeStyle=orthogonalEdgeStyle;rounded=0;orthogonalLoop=1;jettySize=auto;html=1;exitX=0;exitY=0;exitDx=0;exitDy=0;" edge="1" parent="1" source="7aKeYZJTnc0OrMBW9mIs-103">
          <mxGeometry relative="1" as="geometry">
            <mxPoint x="250" y="-220" as="targetPoint" />
          </mxGeometry>
        </mxCell>
        <mxCell id="7aKeYZJTnc0OrMBW9mIs-103" value="Hotel" style="rounded=0;whiteSpace=wrap;html=1;fillColor=#d5e8d4;strokeColor=#82b366;" vertex="1" parent="1">
          <mxGeometry x="330" y="-160" width="120" height="60" as="geometry" />
        </mxCell>
        <mxCell id="7aKeYZJTnc0OrMBW9mIs-112" value="" style="ellipse;whiteSpace=wrap;html=1;" vertex="1" parent="1">
          <mxGeometry x="260" y="-390" width="100" height="85" as="geometry" />
        </mxCell>
        <mxCell id="7aKeYZJTnc0OrMBW9mIs-113" value="nombre" style="ellipse;whiteSpace=wrap;html=1;fillColor=#dae8fc;strokeColor=#6c8ebf;" vertex="1" parent="1">
          <mxGeometry x="355" y="-310" width="70" height="50" as="geometry" />
        </mxCell>
        <mxCell id="7aKeYZJTnc0OrMBW9mIs-115" value="dirección" style="ellipse;whiteSpace=wrap;html=1;fillColor=#dae8fc;strokeColor=#6c8ebf;" vertex="1" parent="1">
          <mxGeometry x="425" y="-355" width="80" height="50" as="geometry" />
        </mxCell>
        <mxCell id="7aKeYZJTnc0OrMBW9mIs-116" value="nº teléfono" style="ellipse;whiteSpace=wrap;html=1;fillColor=#dae8fc;strokeColor=#6c8ebf;" vertex="1" parent="1">
          <mxGeometry x="470" y="-290" width="80" height="50" as="geometry" />
        </mxCell>
        <mxCell id="7aKeYZJTnc0OrMBW9mIs-119" value="hotel/fecha&lt;br&gt;alojamiento" style="ellipse;whiteSpace=wrap;html=1;fillColor=#dae8fc;strokeColor=#6c8ebf;" vertex="1" parent="1">
          <mxGeometry x="270" y="-377.5" width="80" height="60" as="geometry" />
        </mxCell>
        <mxCell id="7aKeYZJTnc0OrMBW9mIs-120" value="" style="ellipse;whiteSpace=wrap;html=1;" vertex="1" parent="1">
          <mxGeometry x="60" y="420" width="100" height="60" as="geometry" />
        </mxCell>
        <mxCell id="7aKeYZJTnc0OrMBW9mIs-121" value="campeonatos participados" style="ellipse;whiteSpace=wrap;html=1;fillColor=#dae8fc;strokeColor=#6c8ebf;" vertex="1" parent="1">
          <mxGeometry x="70" y="425" width="80" height="50" as="geometry" />
        </mxCell>
        <mxCell id="7aKeYZJTnc0OrMBW9mIs-128" value="" style="ellipse;whiteSpace=wrap;html=1;" vertex="1" parent="1">
          <mxGeometry x="550" y="160" width="100" height="70" as="geometry" />
        </mxCell>
        <mxCell id="7aKeYZJTnc0OrMBW9mIs-129" value="campeonatos participados" style="ellipse;whiteSpace=wrap;html=1;fillColor=#dae8fc;strokeColor=#6c8ebf;" vertex="1" parent="1">
          <mxGeometry x="560" y="170" width="80" height="50" as="geometry" />
        </mxCell>
        <mxCell id="7aKeYZJTnc0OrMBW9mIs-130" value="" style="ellipse;whiteSpace=wrap;html=1;" vertex="1" parent="1">
          <mxGeometry x="430" y="800" width="110" height="70" as="geometry" />
        </mxCell>
        <mxCell id="7aKeYZJTnc0OrMBW9mIs-131" value="número clubes" style="ellipse;whiteSpace=wrap;html=1;fillColor=#dae8fc;strokeColor=#6c8ebf;" vertex="1" parent="1">
          <mxGeometry x="442.5" y="805" width="85" height="60" as="geometry" />
        </mxCell>
        <mxCell id="7aKeYZJTnc0OrMBW9mIs-134" value="Sala" style="rounded=0;whiteSpace=wrap;html=1;fillColor=#d5e8d4;strokeColor=#82b366;" vertex="1" parent="1">
          <mxGeometry x="310" y="1270" width="120" height="60" as="geometry" />
        </mxCell>
        <mxCell id="7aKeYZJTnc0OrMBW9mIs-135" value="se celebra" style="rhombus;whiteSpace=wrap;html=1;fillColor=#a20025;fontColor=#ffffff;strokeColor=#6F0000;" vertex="1" parent="1">
          <mxGeometry x="330" y="1120" width="80" height="80" as="geometry" />
        </mxCell>
        <mxCell id="7aKeYZJTnc0OrMBW9mIs-136" style="edgeStyle=orthogonalEdgeStyle;rounded=0;orthogonalLoop=1;jettySize=auto;html=1;exitX=0;exitY=1;exitDx=0;exitDy=0;" edge="1" parent="1">
          <mxGeometry relative="1" as="geometry">
            <mxPoint x="270" y="1370" as="targetPoint" />
            <mxPoint x="310" y="1330" as="sourcePoint" />
          </mxGeometry>
        </mxCell>
        <mxCell id="7aKeYZJTnc0OrMBW9mIs-137" style="edgeStyle=orthogonalEdgeStyle;rounded=0;orthogonalLoop=1;jettySize=auto;html=1;exitX=1;exitY=1;exitDx=0;exitDy=0;" edge="1" parent="1">
          <mxGeometry relative="1" as="geometry">
            <mxPoint x="465" y="1370" as="targetPoint" />
            <mxPoint x="425" y="1330" as="sourcePoint" />
          </mxGeometry>
        </mxCell>
        <mxCell id="7aKeYZJTnc0OrMBW9mIs-138" value="capacidad" style="ellipse;whiteSpace=wrap;html=1;fillColor=#dae8fc;strokeColor=#6c8ebf;" vertex="1" parent="1">
          <mxGeometry x="230" y="1360" width="70" height="50" as="geometry" />
        </mxCell>
        <mxCell id="7aKeYZJTnc0OrMBW9mIs-139" value="medios" style="ellipse;whiteSpace=wrap;html=1;fillColor=#dae8fc;strokeColor=#6c8ebf;" vertex="1" parent="1">
          <mxGeometry x="440" y="1360" width="60" height="50" as="geometry" />
        </mxCell>
        <mxCell id="7aKeYZJTnc0OrMBW9mIs-142" value="" style="ellipse;whiteSpace=wrap;html=1;" vertex="1" parent="1">
          <mxGeometry x="205" y="-270" width="90" height="60" as="geometry" />
        </mxCell>
        <mxCell id="7aKeYZJTnc0OrMBW9mIs-143" value="nº entradas vendidas cada sala" style="ellipse;whiteSpace=wrap;html=1;fillColor=#dae8fc;strokeColor=#6c8ebf;" vertex="1" parent="1">
          <mxGeometry x="215" y="-265" width="70" height="50" as="geometry" />
        </mxCell>
        <mxCell id="7aKeYZJTnc0OrMBW9mIs-147" value="" style="ellipse;whiteSpace=wrap;html=1;" vertex="1" parent="1">
          <mxGeometry x="510" y="990" width="90" height="60" as="geometry" />
        </mxCell>
        <mxCell id="7aKeYZJTnc0OrMBW9mIs-148" value="registro movimientos" style="ellipse;whiteSpace=wrap;html=1;fillColor=#dae8fc;strokeColor=#6c8ebf;" vertex="1" parent="1">
          <mxGeometry x="515" y="995" width="80" height="50" as="geometry" />
        </mxCell>
        <mxCell id="7aKeYZJTnc0OrMBW9mIs-149" value="1:1" style="text;html=1;align=center;verticalAlign=middle;resizable=0;points=[];autosize=1;strokeColor=none;fillColor=none;" vertex="1" parent="1">
          <mxGeometry x="370" y="1040" width="40" height="30" as="geometry" />
        </mxCell>
        <mxCell id="7aKeYZJTnc0OrMBW9mIs-150" value="1:1" style="text;html=1;align=center;verticalAlign=middle;resizable=0;points=[];autosize=1;strokeColor=none;fillColor=none;" vertex="1" parent="1">
          <mxGeometry x="415" y="1145" width="40" height="30" as="geometry" />
        </mxCell>
        <mxCell id="7aKeYZJTnc0OrMBW9mIs-151" value="1:1" style="text;html=1;align=center;verticalAlign=middle;resizable=0;points=[];autosize=1;strokeColor=none;fillColor=none;" vertex="1" parent="1">
          <mxGeometry x="373" y="1220" width="40" height="30" as="geometry" />
        </mxCell>
        <mxCell id="7aKeYZJTnc0OrMBW9mIs-152" value="1:N" style="text;html=1;align=center;verticalAlign=middle;resizable=0;points=[];autosize=1;strokeColor=none;fillColor=none;" vertex="1" parent="1">
          <mxGeometry x="535" y="578" width="40" height="30" as="geometry" />
        </mxCell>
        <mxCell id="7aKeYZJTnc0OrMBW9mIs-153" value="1:N" style="text;html=1;align=center;verticalAlign=middle;resizable=0;points=[];autosize=1;strokeColor=none;fillColor=none;" vertex="1" parent="1">
          <mxGeometry x="590" y="630" width="40" height="30" as="geometry" />
        </mxCell>
        <mxCell id="7aKeYZJTnc0OrMBW9mIs-156" value="1:N" style="text;html=1;align=center;verticalAlign=middle;resizable=0;points=[];autosize=1;strokeColor=none;fillColor=none;" vertex="1" parent="1">
          <mxGeometry x="660" y="835" width="40" height="30" as="geometry" />
        </mxCell>
        <mxCell id="7aKeYZJTnc0OrMBW9mIs-157" value="1:N" style="text;html=1;align=center;verticalAlign=middle;resizable=0;points=[];autosize=1;strokeColor=none;fillColor=none;" vertex="1" parent="1">
          <mxGeometry x="215" y="590" width="40" height="30" as="geometry" />
        </mxCell>
        <mxCell id="7aKeYZJTnc0OrMBW9mIs-158" value="1:N" style="text;html=1;align=center;verticalAlign=middle;resizable=0;points=[];autosize=1;strokeColor=none;fillColor=none;" vertex="1" parent="1">
          <mxGeometry x="140" y="630" width="40" height="30" as="geometry" />
        </mxCell>
        <mxCell id="7aKeYZJTnc0OrMBW9mIs-159" value="1:N" style="text;html=1;align=center;verticalAlign=middle;resizable=0;points=[];autosize=1;strokeColor=none;fillColor=none;" vertex="1" parent="1">
          <mxGeometry x="50" y="840" width="40" height="30" as="geometry" />
        </mxCell>
        <mxCell id="7aKeYZJTnc0OrMBW9mIs-160" value="1:N" style="text;html=1;align=center;verticalAlign=middle;resizable=0;points=[];autosize=1;strokeColor=none;fillColor=none;" vertex="1" parent="1">
          <mxGeometry x="215" y="137.5" width="40" height="30" as="geometry" />
        </mxCell>
        <mxCell id="7aKeYZJTnc0OrMBW9mIs-161" value="1:N" style="text;html=1;align=center;verticalAlign=middle;resizable=0;points=[];autosize=1;strokeColor=none;fillColor=none;" vertex="1" parent="1">
          <mxGeometry x="90" y="5" width="40" height="30" as="geometry" />
        </mxCell>
        <mxCell id="7aKeYZJTnc0OrMBW9mIs-162" value="1:N" style="text;html=1;align=center;verticalAlign=middle;resizable=0;points=[];autosize=1;strokeColor=none;fillColor=none;" vertex="1" parent="1">
          <mxGeometry x="130" y="-172" width="40" height="30" as="geometry" />
        </mxCell>
        <mxCell id="7aKeYZJTnc0OrMBW9mIs-163" value="1:N" style="text;html=1;align=center;verticalAlign=middle;resizable=0;points=[];autosize=1;strokeColor=none;fillColor=none;" vertex="1" parent="1">
          <mxGeometry x="520" y="140" width="40" height="30" as="geometry" />
        </mxCell>
        <mxCell id="7aKeYZJTnc0OrMBW9mIs-164" value="1:N" style="text;html=1;align=center;verticalAlign=middle;resizable=0;points=[];autosize=1;strokeColor=none;fillColor=none;" vertex="1" parent="1">
          <mxGeometry x="650" y="18" width="40" height="30" as="geometry" />
        </mxCell>
        <mxCell id="7aKeYZJTnc0OrMBW9mIs-165" value="1:N" style="text;html=1;align=center;verticalAlign=middle;resizable=0;points=[];autosize=1;strokeColor=none;fillColor=none;" vertex="1" parent="1">
          <mxGeometry x="615" y="-172" width="40" height="30" as="geometry" />
        </mxCell>
        <mxCell id="7aKeYZJTnc0OrMBW9mIs-172" value="1:N" style="text;html=1;align=center;verticalAlign=middle;resizable=0;points=[];autosize=1;strokeColor=none;fillColor=none;" vertex="1" parent="1">
          <mxGeometry x="285" y="408" width="40" height="30" as="geometry" />
        </mxCell>
        <mxCell id="7aKeYZJTnc0OrMBW9mIs-173" value="1:N" style="text;html=1;align=center;verticalAlign=middle;resizable=0;points=[];autosize=1;strokeColor=none;fillColor=none;" vertex="1" parent="1">
          <mxGeometry x="455" y="438" width="40" height="30" as="geometry" />
        </mxCell>
        <mxCell id="7aKeYZJTnc0OrMBW9mIs-176" value="1:1" style="text;html=1;align=center;verticalAlign=middle;resizable=0;points=[];autosize=1;strokeColor=none;fillColor=none;" vertex="1" parent="1">
          <mxGeometry x="380" y="700" width="40" height="30" as="geometry" />
        </mxCell>
        <mxCell id="7aKeYZJTnc0OrMBW9mIs-177" value="1:N" style="text;html=1;align=center;verticalAlign=middle;resizable=0;points=[];autosize=1;strokeColor=none;fillColor=none;" vertex="1" parent="1">
          <mxGeometry x="385" y="520" width="40" height="30" as="geometry" />
        </mxCell>
        <mxCell id="7aKeYZJTnc0OrMBW9mIs-178" value="1:N" style="text;html=1;align=center;verticalAlign=middle;resizable=0;points=[];autosize=1;strokeColor=none;fillColor=none;" vertex="1" parent="1">
          <mxGeometry x="420" y="608" width="40" height="30" as="geometry" />
        </mxCell>
        <mxCell id="7aKeYZJTnc0OrMBW9mIs-183" value="" style="triangle;whiteSpace=wrap;html=1;rotation=90;fillColor=#e1d5e7;strokeColor=#9673a6;" vertex="1" parent="1">
          <mxGeometry x="360" y="100" width="60" height="105" as="geometry" />
        </mxCell>
        <mxCell id="7aKeYZJTnc0OrMBW9mIs-184" value="(1,1)" style="text;html=1;align=center;verticalAlign=middle;resizable=0;points=[];autosize=1;strokeColor=none;fillColor=none;" vertex="1" parent="1">
          <mxGeometry x="363" y="100" width="50" height="30" as="geometry" />
        </mxCell>
        <mxCell id="7aKeYZJTnc0OrMBW9mIs-185" value="(0,1)" style="text;html=1;align=center;verticalAlign=middle;resizable=0;points=[];autosize=1;strokeColor=none;fillColor=none;" vertex="1" parent="1">
          <mxGeometry x="280" y="280" width="50" height="30" as="geometry" />
        </mxCell>
        <mxCell id="7aKeYZJTnc0OrMBW9mIs-186" value="(0,1)" style="text;html=1;align=center;verticalAlign=middle;resizable=0;points=[];autosize=1;strokeColor=none;fillColor=none;" vertex="1" parent="1">
          <mxGeometry x="455" y="285" width="50" height="30" as="geometry" />
        </mxCell>
      </root>
    </mxGraphModel>
  </diagram>
</mxfile>
